<?xml version="1.0" encoding="utf-8"?>
<!-- Generator: Adobe Illustrator 16.0.0, SVG Export Plug-In . SVG Version: 6.00 Build 0)  -->
<!DOCTYPE svg PUBLIC "-//W3C//DTD SVG 1.1//EN" "http://www.w3.org/Graphics/SVG/1.1/DTD/svg11.dtd">
<svg version="1.1" id="Layer_1" xmlns="http://www.w3.org/2000/svg" xmlns:xlink="http://www.w3.org/1999/xlink" x="0px" y="0px"
	 width="120px" height="120px" viewBox="0 0 120 120" enable-background="new 0 0 120 120" xml:space="preserve">
<g>
	<circle fill="#414e5a" cx="60" cy="60" r="57.652"/>
	<path fill="#FFFFFF" d="M111.513,58.146H79.374c-1.673,0-3.107,1.013-3.656,2.56l-8.51,24.206l-13.123-65.05
		c-0.352-1.702-1.814-2.968-3.558-3.081c-1.716-0.084-3.348,0.985-3.882,2.645L33.944,57.991H8.473
		c-2.109,0-3.854,1.716-3.854,3.854c0,2.124,1.744,3.854,3.854,3.854h28.285c1.646,0,3.136-1.069,3.657-2.658l8.987-27.357
		l12.997,64.446c0.338,1.716,1.786,2.981,3.502,3.095c0.127,0,0.211,0,0.295,0c1.618,0,3.066-1.027,3.643-2.575l12.251-34.796
		h29.424c2.167,0,3.868-1.744,3.868-3.854C115.396,59.848,113.68,58.146,111.513,58.146z"/>
</g>
</svg>
