<?xml version="1.0" encoding="utf-8"?>
<!-- Generator: Adobe Illustrator 16.0.0, SVG Export Plug-In . SVG Version: 6.00 Build 0)  -->
<!DOCTYPE svg PUBLIC "-//W3C//DTD SVG 1.1//EN" "http://www.w3.org/Graphics/SVG/1.1/DTD/svg11.dtd">
<svg version="1.1" id="Layer_1" xmlns="http://www.w3.org/2000/svg" xmlns:xlink="http://www.w3.org/1999/xlink" x="0px" y="0px"
	 width="120px" height="120px" viewBox="0 0 120 120" enable-background="new 0 0 120 120" xml:space="preserve">
<circle fill="#414e5a" cx="60" cy="60" r="57.652"/>
<g>
	<path fill="#414e5a" stroke="#FFFFFF" stroke-width="6" stroke-miterlimit="10" d="M85.801,40.439H71.099
		c-0.809,0-1.471-0.658-1.471-1.471v-5.88c0-0.812,0.662-1.47,1.471-1.47h14.702c0.808,0,1.47,0.659,1.47,1.47v5.88
		C87.271,39.781,86.608,40.439,85.801,40.439z M72.57,37.498h11.762v-2.94H72.57V37.498z"/>
	<path fill="#414e5a" stroke="#FFFFFF" stroke-width="6" stroke-miterlimit="10" d="M51.257,40.439H36.555
		c-0.81,0-1.472-0.658-1.472-1.471v-5.88c0-0.812,0.662-1.47,1.472-1.47h14.702c0.809,0,1.469,0.659,1.469,1.47v5.88
		C52.726,39.781,52.065,40.439,51.257,40.439z M38.024,37.498h11.762v-2.94H38.024V37.498z"/>
	<path fill="#FFFFFF" d="M44.629,87.832l0.513-0.494v-4.771v-4.772l-0.479-0.478l-0.479-0.477H35.27h-8.914l-0.513,0.578
		l-0.511,0.593v4.458c0,3.648,0.049,4.539,0.247,4.935c0.512,1.009,0.313,0.992,9.855,0.941l8.7-0.034L44.629,87.832z"/>
	<path fill="#FFFFFF" d="M93.593,88.13c1.009-0.465,1.075-0.842,1.075-5.629c0-3.931-0.034-4.292-0.331-4.788
		c-0.166-0.28-0.462-0.593-0.643-0.692c-0.314-0.181-2.989-0.197-32.341-0.181H49.73l-0.479,0.477l-0.479,0.478v4.772v4.771
		l0.462,0.429c0.249,0.231,0.562,0.463,0.694,0.512c0.131,0.049,9.888,0.101,21.676,0.101C90.803,88.394,93.098,88.361,93.593,88.13
		z"/>
	<path fill="#FFFFFF" d="M70.136,73.141c1.09-0.444,1.09-0.479,1.09-5.678v-4.69l-0.479-0.478l-0.479-0.479h-21.94
		c-16.972,0.017-21.973,0.049-22.171,0.213c-0.809,0.627-0.825,0.761-0.825,5.45c0,3.878,0.033,4.505,0.28,4.919
		c0.61,1.022-0.776,0.974,22.633,0.974C66.125,73.372,69.674,73.338,70.136,73.141z"/>
	<path fill="#FFFFFF" d="M93.429,73.141c0.312-0.132,0.727-0.495,0.908-0.793c0.312-0.512,0.331-0.759,0.297-5.034l-0.049-4.49
		l-0.48-0.495l-0.495-0.512h-8.931c-8.849,0-8.93,0-9.31,0.347c-0.198,0.181-0.43,0.527-0.527,0.759
		c-0.083,0.214-0.15,2.295-0.15,4.623c0,4.687,0.083,5.083,1.041,5.562C76.491,73.47,92.554,73.504,93.429,73.141z"/>
	<path fill="#FFFFFF" d="M94.287,57.541c0.381-0.546,0.381-0.662,0.381-4.837c0-3.63-0.051-4.375-0.266-4.853
		c-0.546-1.122,1.022-1.056-22.797-1.056c-20.076,0-21.628,0.016-22.008,0.28c-0.824,0.561-0.809,0.512-0.824,5.514
		c0,4.539,0.016,4.738,0.347,5.167l0.331,0.43l11.671,0.035c6.421,0.032,16.427,0.014,22.236-0.035l10.549-0.083L94.287,57.541z"/>
	<path fill="#FFFFFF" d="M44.795,57.754c0.329-0.429,0.347-0.627,0.347-5.167c-0.018-5.001,0-4.953-0.826-5.514
		c-0.363-0.248-1.172-0.28-8.964-0.28c-9.393,0-9.261-0.017-9.772,1.006c-0.23,0.413-0.247,1.171-0.214,5.019l0.049,4.506
		l0.396,0.43l0.396,0.428h9.129h9.13L44.795,57.754z"/>
</g>
</svg>
